# xmcd
#
# Track frame offsets:
# 150
# 26895
# 43946
# 58499
# 70500
# 86529
# 105622
# 124640
# 143206
# 161196
# 177329
# 190266
# 202690
# 221291
# 242762
# 258381
# 273887
# 289022
#
# Disc length: 4069 seconds
#
#
# Revision: 0
# Processed by: cddbd v1.5.2PL0 Copyright (c) Steve Scherf et al.
# Submitted via: FreeRIP 2.951 
#
DISCID=0b0fe312
DTITLE=Cesar Menotti and Fabiano - Só Modão 2006
DYEAR=2006
DGENRE=Country
TTITLE0=Pagodes - A coisa ta feia, Pagode em Brasilia, Morena bonita, Águas de São Francisco
TTITLE1=Fica Comigo
TTITLE2=Vou tomar todas
TTITLE3=A ultima cerveja
TTITLE4=A procura de uma flor
TTITLE5=Ultimo adeus
TTITLE6=25 de Dezembro
TTITLE7=Luz da minha vida
TTITLE8=Poente da vida
TTITLE9=Herói sem medalha
TTITLE10=Caminhos da minha infancia
TTITLE11=Como reconquistar o seu amor
TTITLE12=Seu filho voltou
TTITLE13=Como eu chorei
TTITLE14=Porta do mundo
TTITLE15=Boi soberano
TTITLE16=Jeitão de caboclo
TTITLE17=Eu bebi por ela
EXTD=CD bom pra kralho!!!
EXTT0=
EXTT1=
EXTT2=
EXTT3=
EXTT4=
EXTT5=
EXTT6=
EXTT7=
EXTT8=
EXTT9=
EXTT10=
EXTT11=
EXTT12=
EXTT13=
EXTT14=
EXTT15=
EXTT16=
EXTT17=
PLAYORDER=
